<?xml version="1.0" standalone="no"?><svg xmlns="http://www.w3.org/2000/svg" viewBox="0 0 1440 320"><path fill="#012970" fill-opacity="1" d="M0,256L15,213.3C30,171,60,85,90,69.3C120,53,150,107,180,160C210,213,240,267,270,250.7C300,235,330,149,360,112C390,75,420,85,450,96C480,107,510,117,540,112C570,107,600,85,630,64C660,43,690,21,720,26.7C750,32,780,64,810,90.7C840,117,870,139,900,149.3C930,160,960,160,990,149.3C1020,139,1050,117,1080,101.3C1110,85,1140,75,1170,85.3C1200,96,1230,128,1260,154.7C1290,181,1320,203,1350,208C1380,213,1410,203,1425,197.3L1440,192L1440,320L1425,320C1410,320,1380,320,1350,320C1320,320,1290,320,1260,320C1230,320,1200,320,1170,320C1140,320,1110,320,1080,320C1050,320,1020,320,990,320C960,320,930,320,900,320C870,320,840,320,810,320C780,320,750,320,720,320C690,320,660,320,630,320C600,320,570,320,540,320C510,320,480,320,450,320C420,320,390,320,360,320C330,320,300,320,270,320C240,320,210,320,180,320C150,320,120,320,90,320C60,320,30,320,15,320L0,320Z"></path></svg>