<?xml version="1.0" standalone="no"?><svg xmlns="http://www.w3.org/2000/svg" viewBox="0 0 1440 320"><path fill="#012970" fill-opacity="1" d="M0,320L40,293.3C80,267,160,213,240,202.7C320,192,400,224,480,202.7C560,181,640,107,720,112C800,117,880,203,960,202.7C1040,203,1120,117,1200,80C1280,43,1360,53,1400,58.7L1440,64L1440,320L1400,320C1360,320,1280,320,1200,320C1120,320,1040,320,960,320C880,320,800,320,720,320C640,320,560,320,480,320C400,320,320,320,240,320C160,320,80,320,40,320L0,320Z"></path></svg>