<?xml version="1.0" standalone="no"?><svg xmlns="http://www.w3.org/2000/svg" viewBox="0 0 1440 320"><path fill="#012970" fill-opacity="1" d="M0,96L40,122.7C80,149,160,203,240,192C320,181,400,107,480,69.3C560,32,640,32,720,64C800,96,880,160,960,181.3C1040,203,1120,181,1200,149.3C1280,117,1360,75,1400,53.3L1440,32L1440,320L1400,320C1360,320,1280,320,1200,320C1120,320,1040,320,960,320C880,320,800,320,720,320C640,320,560,320,480,320C400,320,320,320,240,320C160,320,80,320,40,320L0,320Z"></path></svg>