<?xml version="1.0" standalone="no"?><svg xmlns="http://www.w3.org/2000/svg" viewBox="0 0 1440 320"><path fill="#012970" fill-opacity="1" d="M0,128L10.9,117.3C21.8,107,44,85,65,85.3C87.3,85,109,107,131,138.7C152.7,171,175,213,196,240C218.2,267,240,277,262,245.3C283.6,213,305,139,327,133.3C349.1,128,371,192,393,186.7C414.5,181,436,107,458,85.3C480,64,502,96,524,96C545.5,96,567,64,589,69.3C610.9,75,633,117,655,128C676.4,139,698,117,720,90.7C741.8,64,764,32,785,26.7C807.3,21,829,43,851,90.7C872.7,139,895,213,916,202.7C938.2,192,960,96,982,58.7C1003.6,21,1025,43,1047,64C1069.1,85,1091,107,1113,138.7C1134.5,171,1156,213,1178,192C1200,171,1222,85,1244,48C1265.5,11,1287,21,1309,58.7C1330.9,96,1353,160,1375,154.7C1396.4,149,1418,75,1429,37.3L1440,0L1440,320L1429.1,320C1418.2,320,1396,320,1375,320C1352.7,320,1331,320,1309,320C1287.3,320,1265,320,1244,320C1221.8,320,1200,320,1178,320C1156.4,320,1135,320,1113,320C1090.9,320,1069,320,1047,320C1025.5,320,1004,320,982,320C960,320,938,320,916,320C894.5,320,873,320,851,320C829.1,320,807,320,785,320C763.6,320,742,320,720,320C698.2,320,676,320,655,320C632.7,320,611,320,589,320C567.3,320,545,320,524,320C501.8,320,480,320,458,320C436.4,320,415,320,393,320C370.9,320,349,320,327,320C305.5,320,284,320,262,320C240,320,218,320,196,320C174.5,320,153,320,131,320C109.1,320,87,320,65,320C43.6,320,22,320,11,320L0,320Z"></path></svg>