<?xml version="1.0" standalone="no"?><svg xmlns="http://www.w3.org/2000/svg" viewBox="0 0 1440 320"><path fill="#012970" fill-opacity="1" d="M0,128L40,117.3C80,107,160,85,240,112C320,139,400,213,480,213.3C560,213,640,139,720,133.3C800,128,880,192,960,202.7C1040,213,1120,171,1200,149.3C1280,128,1360,128,1400,128L1440,128L1440,320L1400,320C1360,320,1280,320,1200,320C1120,320,1040,320,960,320C880,320,800,320,720,320C640,320,560,320,480,320C400,320,320,320,240,320C160,320,80,320,40,320L0,320Z"></path></svg>